<?xml version="1.0" encoding="utf-8"?><!-- Uploaded to: SVG Repo, www.svgrepo.com, Generator: SVG Repo Mixer Tools -->
<svg width="800px" height="800px" viewBox="0 0 24 24" fill="none" xmlns="http://www.w3.org/2000/svg">
<path d="M20 11.6211V18C20 19.1046 19.1046 20 18 20H6C4.89543 20 4 19.1046 4 18V11.6211M7.5 9.75C7.5 10.9926 6.49264 12 5.25 12C4.09397 12 3.14157 11.1282 3.01442 10.0062C2.99524 9.83688 3.02176 9.66657 3.06477 9.50173L4.10996 5.49516C4.3397 4.6145 5.13506 4 6.04519 4H17.9548C18.8649 4 19.6603 4.6145 19.89 5.49516L20.9352 9.50173C20.9782 9.66657 21.0048 9.83688 20.9856 10.0062C20.8584 11.1282 19.906 12 18.75 12C17.5074 12 16.5 10.9926 16.5 9.75M7.5 9.75C7.5 10.9926 8.50736 12 9.75 12C10.9926 12 12 10.9926 12 9.75M7.5 9.75L8 4M12 9.75C12 10.9926 13.0074 12 14.25 12C15.4926 12 16.5 10.9926 16.5 9.75M12 9.75V4M16.5 9.75L16 4" stroke="#ff6c79" stroke-width="2" stroke-linecap="round" stroke-linejoin="round"/>
</svg>